<svg width="269pt" height="476pt" viewBox="0.00 0.00 269.00 476.00" xmlns="http://www.w3.org/2000/svg" xmlns:xlink="http://www.w3.org/1999/xlink">
<g id="graph0" class="graph" transform="scale(1 1) rotate(0) translate(4 472)">
<title>G</title>
<polygon fill="white" stroke="none" points="-4,4 -4,-472 265.29,-472 265.29,4 -4,4"/>
<!-- 0 -->
<g id="node1" class="node">
<title>0</title>
<ellipse fill="none" stroke="black" cx="130.64" cy="-450" rx="34.1" ry="18"/>
<text xml:space="preserve" text-anchor="middle" x="130.64" y="-445.8" font-family="Times,serif" font-size="14.00">Initial</text>
</g>
<!-- 4 -->
<g id="node5" class="node">
<title>4</title>
<polygon fill="none" stroke="black" points="234.4,-396 26.89,-396 26.89,-360 234.4,-360 234.4,-396"/>
<text xml:space="preserve" text-anchor="middle" x="130.64" y="-373.8" font-family="Times,serif" font-size="14.00">OrderAccepted&lt;OrderSubmitted&gt;</text>
</g>
<!-- 0&#45;&gt;4 -->
<g id="edge1" class="edge">
<title>0-&gt;4</title>
<path fill="none" stroke="black" d="M130.64,-431.7C130.64,-424.41 130.64,-415.73 130.64,-407.54"/>
<polygon fill="black" stroke="black" points="134.15,-407.62 130.64,-397.62 127.15,-407.62 134.15,-407.62"/>
</g>
<!-- 1 -->
<g id="node2" class="node">
<title>1</title>
<ellipse fill="none" stroke="black" cx="130.64" cy="-306" rx="130.64" ry="18"/>
<text xml:space="preserve" text-anchor="middle" x="130.64" y="-301.8" font-family="Times,serif" font-size="14.00">AwaitingInventoryReservation</text>
</g>
<!-- 5 -->
<g id="node6" class="node">
<title>5</title>
<polygon fill="none" stroke="black" points="255,-252 6.29,-252 6.29,-216 255,-216 255,-252"/>
<text xml:space="preserve" text-anchor="middle" x="130.64" y="-229.8" font-family="Times,serif" font-size="14.00">OrderItemReserved&lt;InventoryReserved&gt;</text>
</g>
<!-- 1&#45;&gt;5 -->
<g id="edge2" class="edge">
<title>1-&gt;5</title>
<path fill="none" stroke="black" d="M130.64,-287.7C130.64,-280.41 130.64,-271.73 130.64,-263.54"/>
<polygon fill="black" stroke="black" points="134.15,-263.62 130.64,-253.62 127.15,-263.62 134.15,-263.62"/>
</g>
<!-- 2 -->
<g id="node3" class="node">
<title>2</title>
<ellipse fill="none" stroke="black" cx="130.64" cy="-162" rx="80.77" ry="18"/>
<text xml:space="preserve" text-anchor="middle" x="130.64" y="-157.8" font-family="Times,serif" font-size="14.00">AwaitingPayment</text>
</g>
<!-- 6 -->
<g id="node7" class="node">
<title>6</title>
<polygon fill="none" stroke="black" points="254.24,-108 7.05,-108 7.05,-72 254.24,-72 254.24,-108"/>
<text xml:space="preserve" text-anchor="middle" x="130.64" y="-85.8" font-family="Times,serif" font-size="14.00">PaymentCompleted&lt;PaymentProcessed&gt;</text>
</g>
<!-- 2&#45;&gt;6 -->
<g id="edge3" class="edge">
<title>2-&gt;6</title>
<path fill="none" stroke="black" d="M130.64,-143.7C130.64,-136.41 130.64,-127.73 130.64,-119.54"/>
<polygon fill="black" stroke="black" points="134.15,-119.62 130.64,-109.62 127.15,-119.62 134.15,-119.62"/>
</g>
<!-- 3 -->
<g id="node4" class="node">
<title>3</title>
<ellipse fill="none" stroke="black" cx="130.64" cy="-18" rx="49.65" ry="18"/>
<text xml:space="preserve" text-anchor="middle" x="130.64" y="-13.8" font-family="Times,serif" font-size="14.00">Processed</text>
</g>
<!-- 4&#45;&gt;1 -->
<g id="edge4" class="edge">
<title>4-&gt;1</title>
<path fill="none" stroke="black" d="M130.64,-359.7C130.64,-352.41 130.64,-343.73 130.64,-335.54"/>
<polygon fill="black" stroke="black" points="134.15,-335.62 130.64,-325.62 127.15,-335.62 134.15,-335.62"/>
</g>
<!-- 5&#45;&gt;2 -->
<g id="edge5" class="edge">
<title>5-&gt;2</title>
<path fill="none" stroke="black" d="M130.64,-215.7C130.64,-208.41 130.64,-199.73 130.64,-191.54"/>
<polygon fill="black" stroke="black" points="134.15,-191.62 130.64,-181.62 127.15,-191.62 134.15,-191.62"/>
</g>
<!-- 6&#45;&gt;3 -->
<g id="edge6" class="edge">
<title>6-&gt;3</title>
<path fill="none" stroke="black" d="M130.64,-71.7C130.64,-64.41 130.64,-55.73 130.64,-47.54"/>
<polygon fill="black" stroke="black" points="134.15,-47.62 130.64,-37.62 127.15,-47.62 134.15,-47.62"/>
</g>
</g>
</svg>